<svg width="174" height="48" viewBox="0 0 174 48" fill="none" xmlns="http://www.w3.org/2000/svg">
<g id="Logo">
<path id="Vector" d="M32.3489 26.0636V44.1563C32.3489 44.78 31.8426 45.2845 31.2207 45.2845H25.5162C24.8926 45.2845 24.3862 44.78 24.3862 44.1563V27.25C24.3862 26.4054 24.2289 25.5982 23.9398 24.8564C23.4889 23.69 22.7171 22.6818 21.7326 21.9427C20.9853 21.3818 20.3017 21.1154 20.0617 21.0282C18.1798 20.3454 15.6935 20.5109 13.7717 21.9409C12.358 22.9918 11.7608 24.3473 11.5635 24.8564C11.2753 25.5991 11.1171 26.4064 11.1171 27.25V44.1563C11.1171 44.78 10.6126 45.2845 9.98893 45.2845H4.28439C3.66075 45.2845 3.15621 44.78 3.15621 44.1563V15.7709C3.15621 15.1491 3.66075 14.6427 4.28439 14.6427H9.98893C10.2962 14.6427 10.5744 14.7654 10.778 14.9654C10.8262 15.0127 10.9171 15.1027 10.988 15.2473C11.058 15.3891 11.0753 15.5164 11.0989 15.6873C11.1235 15.8645 11.1053 15.8727 11.1326 16.0045C11.1462 16.0736 11.1744 16.2073 11.2535 16.3545C11.2753 16.3954 11.3717 16.5691 11.5717 16.7273C11.6635 16.7991 11.8953 16.98 12.2398 16.9891C12.6262 16.9991 12.8935 16.7854 12.9635 16.7254C13.2244 16.5173 13.4944 16.32 13.7726 16.1345C14.5908 15.5864 15.4807 15.1373 16.4253 14.8045C16.5862 14.7473 16.748 14.6936 16.9117 14.6436C18.0171 14.3054 19.1898 14.1236 20.4062 14.1236C21.6226 14.1236 22.7953 14.3054 23.9008 14.6436C24.0644 14.6927 24.2262 14.7454 24.3871 14.8045C25.3335 15.1364 26.2235 15.5873 27.0417 16.1345C28.0435 16.8045 28.938 17.6227 29.6944 18.5573C30.0017 18.9373 30.2853 19.3354 30.5444 19.75C31.4871 21.2591 32.1017 22.9954 32.288 24.8573C32.328 25.2536 32.348 25.6564 32.348 26.0645L32.3489 26.0636Z" fill="var(--fill-0, white)"/>
<path id="Vector_2" d="M68.2317 30.0036C68.2317 29.9791 68.2317 29.9191 68.2326 29.8336C68.2362 29.6918 68.2435 29.6145 68.2435 29.4145C68.2435 28.7509 68.2017 28.0982 68.118 27.4573C68.0135 26.6318 67.8398 25.8273 67.6071 25.05C67.5935 25.0009 67.5789 24.9527 67.5635 24.9046C66.9998 23.0864 66.1062 21.4145 64.9517 19.96C64.908 19.9064 64.8653 19.8518 64.8207 19.7982C64.078 18.8864 63.2326 18.0618 62.2989 17.3446C61.478 16.71 60.5889 16.1591 59.6462 15.7027C58.8017 15.2918 57.9144 14.9591 56.9917 14.71C56.9689 14.7027 56.9453 14.6964 56.9207 14.6918C55.6735 14.36 54.3635 14.1836 53.0117 14.1836C51.6598 14.1836 50.3489 14.36 49.1026 14.6918C49.078 14.6964 49.0544 14.7027 49.0317 14.71C48.1089 14.9582 47.2217 15.2918 46.3789 15.7009C45.4344 16.1582 44.5471 16.71 43.7244 17.3446C42.7907 18.0618 41.9453 18.8864 41.2026 19.7982C41.158 19.8518 41.1144 19.9064 41.0717 19.96C39.9171 21.4155 39.0235 23.0873 38.4598 24.9046C38.4444 24.9527 38.4307 25 38.4162 25.05C38.1835 25.8282 38.0107 26.6318 37.9053 27.4573C37.8098 28.2046 37.7953 28.7691 37.7798 29.4145C37.7717 29.7409 37.7689 30.14 37.7798 30.5918C37.7953 31.2382 37.808 31.8073 37.9062 32.5646C38.0126 33.3836 38.1844 34.1836 38.4153 34.9564C38.4307 35.01 38.448 35.0664 38.4644 35.1182C39.0262 36.9282 39.918 38.5955 41.0698 40.0464C41.118 40.1064 41.1653 40.1664 41.2153 40.2255C41.9544 41.1318 42.7953 41.9491 43.7235 42.6627C44.5462 43.2973 45.4335 43.85 46.378 44.3064C47.2207 44.7155 48.108 45.0491 49.0307 45.2973C49.0753 45.31 49.1198 45.3218 49.1653 45.3327C50.3935 45.6536 51.6826 45.8236 53.0117 45.8236C54.3407 45.8236 55.6289 45.6536 56.858 45.3327C56.9026 45.3218 56.9471 45.31 56.9926 45.2973C57.9153 45.0491 58.8026 44.7155 59.6471 44.3064C60.5898 43.8482 61.4789 43.2973 62.2998 42.6627C63.2271 41.95 64.0689 41.1318 64.808 40.2255C64.8571 40.1664 64.9053 40.1064 64.9535 40.0464C65.7326 39.0636 66.3935 37.9827 66.9135 36.8236L66.9153 36.8191C66.9535 36.7373 66.9889 36.6536 67.0253 36.5709L67.0271 36.5682C67.058 36.4664 67.0735 36.3582 67.0735 36.2473C67.0735 36.0327 67.0135 35.8318 66.908 35.6627C66.7117 35.3373 66.3544 35.1191 65.9453 35.1191H60.4435C60.1335 35.1191 59.8526 35.2445 59.6489 35.4464C59.5889 35.5064 59.5344 35.5727 59.4898 35.6455C59.468 35.6891 59.4462 35.7291 59.4217 35.7709C58.838 36.8255 58.0017 37.7191 56.9944 38.3718C56.2026 38.8873 55.3062 39.2518 54.3417 39.4273C53.9107 39.5064 53.468 39.5473 53.0144 39.5473C52.5607 39.5473 52.118 39.5055 51.6871 39.4273C50.7226 39.2509 49.8262 38.8873 49.0344 38.3718C47.8907 37.6309 46.9662 36.5782 46.3817 35.3327C46.348 35.2636 46.3171 35.1927 46.2862 35.12C46.1489 34.8055 46.0344 34.4764 45.9435 34.14V34.1382C45.8926 34.0209 45.8598 33.8945 45.8526 33.76V33.7573C45.8526 33.7573 45.8498 33.7546 45.8507 33.7527C45.848 33.73 45.848 33.7064 45.848 33.6836C45.848 33.2782 46.0607 32.9227 46.3817 32.7255C46.5144 32.6418 46.6653 32.5864 46.8289 32.5664C46.8289 32.5664 46.9026 32.5564 46.9753 32.5555C47.1735 32.5527 62.8435 32.5636 67.1053 32.5664C67.2007 32.5664 67.4089 32.5691 67.6098 32.4464C68.0407 32.1827 68.1198 31.5436 68.178 31.0782C68.2244 30.7045 68.2335 30.1291 68.2335 30.0064L68.2317 30.0036ZM58.9444 27.4573H46.9698C46.7535 27.4573 46.5517 27.3973 46.3798 27.2909C46.0553 27.0918 45.8417 26.7355 45.8417 26.3291C45.8417 26.2909 45.8435 26.2518 45.848 26.2136V26.2091C45.848 26.2018 45.8498 26.1918 45.8526 26.1846V26.1827C45.8526 26.1827 45.8507 26.1809 45.8526 26.18C45.8507 26.1782 45.8507 26.1773 45.8526 26.1755L45.8544 26.1736C45.8562 26.1555 45.8589 26.1364 45.8617 26.1182C45.8689 26.0655 45.8844 26.0136 45.9035 25.9636C45.9053 25.9573 45.9062 25.9527 45.908 25.9464L45.9098 25.9446V25.9427C45.9098 25.9427 45.908 25.9409 45.9098 25.94C45.9989 25.5836 46.1153 25.2382 46.2571 24.9046C46.2953 24.81 46.3371 24.7182 46.3807 24.6255C46.9644 23.3818 47.8889 22.3273 49.0335 21.5864C49.8253 21.0709 50.7217 20.7064 51.6862 20.5309C52.1171 20.4518 52.5598 20.4109 53.0135 20.4109C53.4671 20.4109 53.9098 20.4527 54.3407 20.5309C55.3053 20.7073 56.2017 21.0709 56.9935 21.5864C58.1389 22.3291 59.0644 23.3827 59.648 24.6282C59.6917 24.7191 59.7326 24.8118 59.7698 24.9046C59.8889 25.1836 59.9871 25.4691 60.0689 25.7645V25.7664C60.2144 26.2409 60.108 26.7455 59.7853 27.08C59.4662 27.4109 59.0571 27.4509 58.9435 27.4582L58.9444 27.4573Z" fill="var(--fill-0, white)"/>
<path id="Vector_3" d="M96.458 44.1909C96.458 44.8146 95.9535 45.3191 95.3298 45.3191C94.0962 45.3191 89.5789 45.3346 89.3598 45.3191C89.1489 45.3046 89.0562 45.2782 88.9998 45.2591C88.8135 45.1964 88.6916 45.0991 88.6653 45.0782C88.5307 44.9691 88.4398 44.8355 88.338 44.6855C88.3226 44.6627 88.3116 44.6464 88.3098 44.6437C88.1562 44.4146 86.9744 42.6509 86.8207 42.4227C86.328 41.6864 85.8353 40.9491 85.3426 40.2127L84.1662 38.4582C84.0016 38.2082 83.8626 38.0055 83.7626 37.8537C83.7489 37.8337 83.6289 37.6509 83.4771 37.5473C83.4544 37.5318 83.4298 37.5164 83.4298 37.5164C83.3116 37.4436 83.2089 37.41 83.1807 37.4009C83.1253 37.3836 83.0026 37.3482 82.8407 37.3482C82.6962 37.3482 82.558 37.3755 82.4316 37.4246C82.3289 37.4646 82.1862 37.5373 82.0553 37.6682C81.9671 37.7555 81.9362 37.8173 81.8262 37.9909C81.7553 38.1037 81.6507 38.2646 81.5135 38.4573L80.3389 40.2118L78.8589 42.4218L77.2507 44.8218C77.2326 44.8482 77.2135 44.8746 77.1935 44.8991C77.1635 44.9355 77.078 45.0373 76.9389 45.1291C76.7871 45.2291 76.6407 45.2746 76.5426 45.2955C76.5426 45.2955 76.4871 45.3064 76.4298 45.3127C76.218 45.3336 70.568 45.3118 70.3153 45.3191C70.3098 45.3191 70.2916 45.3191 70.2671 45.3191C70.0862 45.3137 69.9507 45.2455 69.8789 45.2082C69.6098 45.0682 69.4071 44.8064 69.3144 44.6136C69.2935 44.57 69.2126 44.4 69.2126 44.2046C69.2126 44.2046 69.2098 44.04 69.2635 43.8691C69.268 43.8555 69.2726 43.8382 69.2816 43.8164C69.2907 43.7918 69.3007 43.77 69.3098 43.7509C69.3244 43.7218 69.3371 43.6991 69.3471 43.6827C69.3744 43.6373 69.4335 43.5446 69.5135 43.4255C69.5762 43.3373 69.6607 43.2136 69.7589 43.0618C69.7826 43.0255 69.7989 43 69.8035 42.9918C69.878 42.8755 70.1407 42.48 70.898 41.3564L71.6653 40.2109L73.5526 37.3909L75.0835 35.1037L76.2053 33.4273L78.0216 30.7136C78.1153 30.58 78.1735 30.4736 78.1898 30.4355C78.2116 30.3873 78.2253 30.3409 78.2253 30.3409C78.2253 30.3409 78.228 30.3337 78.2298 30.3255C78.2798 30.1518 78.2789 29.9955 78.2789 29.9955C78.2789 29.9337 78.2726 29.8836 78.2698 29.8582C78.2698 29.8527 78.2635 29.8064 78.2544 29.7609C78.228 29.65 78.1935 29.5655 78.1671 29.5091C78.1416 29.4555 78.118 29.4155 78.1089 29.4018C78.0789 29.3527 77.5689 28.5927 76.2044 26.5655C75.8307 26.0064 75.4562 25.4482 75.0826 24.8891L73.5516 22.6018L71.6644 19.7818L70.8971 18.6364L69.488 16.5327V16.5309C69.3607 16.3455 69.288 16.1909 69.2662 16.12C69.248 16.0609 69.2371 16.0027 69.2371 16.0027C69.2353 15.9918 69.2289 15.9591 69.2244 15.9164C69.2135 15.8073 69.2207 15.7164 69.2244 15.6846C69.2344 15.5864 69.2544 15.5127 69.2644 15.4791C69.2726 15.4518 69.3044 15.3491 69.3689 15.2364C69.3689 15.2364 69.4107 15.1682 69.4571 15.1064C69.4662 15.0936 69.4753 15.0836 69.4853 15.0727C69.4935 15.0627 69.5116 15.0418 69.5335 15.0191C69.568 14.9818 69.5989 14.9555 69.6107 14.9455C69.7362 14.8373 69.8898 14.7691 69.8898 14.7691C70.0544 14.6964 70.1953 14.6809 70.2507 14.6764C70.2771 14.6746 70.2998 14.6736 70.3153 14.6736H76.2044C76.3653 14.6791 76.4826 14.6855 76.5016 14.6873C76.5253 14.69 76.5462 14.6955 76.5462 14.6955C76.5489 14.6955 76.5507 14.6964 76.5516 14.6973C76.8162 14.7627 76.9889 14.88 77.1007 14.9891C77.108 14.9964 77.1153 15.0036 77.1226 15.0109C77.1226 15.0109 77.1289 15.0173 77.1353 15.0246C77.1471 15.0382 77.2144 15.1282 77.3053 15.2527C77.8226 16.0255 78.3407 16.7982 78.858 17.5709L80.338 19.7809L81.5126 21.5355L82.838 23.5173L83.7562 24.8882L84.1653 25.4991L86.8198 29.4636L87.1762 29.9946L89.4726 33.4255L90.5944 35.1018L92.1271 37.3909L94.0144 40.2091L94.7798 41.3546L96.1907 43.4609C96.2662 43.5718 96.318 43.6709 96.3535 43.7473C96.428 43.9073 96.4398 43.9873 96.4407 44.0046C96.4407 44.0091 96.4507 44.0455 96.4507 44.0955C96.4507 44.0955 96.4553 44.1427 96.4553 44.1882L96.458 44.1909Z" fill="var(--fill-0, white)"/>
<path id="Vector_4" d="M95.0935 17.37C95.0935 17.6545 95.0462 17.9082 94.9844 18.1218C94.928 18.3155 94.8689 18.4455 94.8544 18.4764C94.8071 18.5764 94.7625 18.6491 94.6989 18.7527C94.6462 18.8391 94.5744 18.9509 94.4826 19.0782C94.4807 19.08 94.4798 19.0827 94.478 19.0845L94.0116 19.7836L92.1289 22.5973C91.4371 23.6309 90.7462 24.6645 90.0544 25.6982C89.2616 24.5136 88.4689 23.33 87.6762 22.1455C88.4571 20.9773 89.238 19.81 90.0189 18.6418L90.0262 18.6291H85.3216L84.1653 16.9036L82.6744 14.6764H92.1271C92.2107 14.6718 92.3271 14.6691 92.4653 14.6764C92.4653 14.6764 92.9435 14.7027 93.3644 14.8609C94.0235 15.11 94.7253 15.7609 94.978 16.5918C95.088 16.9527 95.0925 17.2755 95.0925 17.3691L95.0935 17.37Z" fill="var(--fill-0, #FF8F1C)"/>
<path id="Vector_5" d="M108.046 12.9645V13.5545C108.046 13.7782 108.111 13.9882 108.225 14.1627V14.1645C108.426 14.4764 108.776 14.6827 109.174 14.6827H112.225C112.849 14.6827 113.353 15.1891 113.353 15.8109V20.0873C113.353 20.7109 112.849 21.2173 112.225 21.2173H109.174C108.725 21.2173 108.336 21.4809 108.155 21.8627C108.084 22.0091 108.045 22.1727 108.045 22.3454V44.1964C108.045 44.82 107.541 45.3245 106.917 45.3245H101.213C100.589 45.3245 100.084 44.82 100.084 44.1964V12.1809C100.084 11.28 100.206 10.4064 100.433 9.57545C100.497 9.34363 100.568 9.11545 100.648 8.89181C101.105 7.60272 101.823 6.43818 102.739 5.45908C103.071 5.10272 103.431 4.7709 103.813 4.46818C104.304 4.07909 104.832 3.73545 105.393 3.44454C106.215 3.01545 107.107 2.7009 108.045 2.52C108.463 2.43818 108.893 2.38272 109.328 2.35818H112.312C112.683 2.38454 113.004 2.59272 113.187 2.89363C113.293 3.06454 113.353 3.26545 113.353 3.48181V7.76272C113.353 8.35363 112.898 8.84 112.32 8.88636C112.288 8.88818 112.257 8.88909 112.225 8.8909C112.156 8.88909 112.057 8.88818 111.939 8.8909C111.939 8.8909 111.862 8.89272 111.795 8.89545C111.283 8.92 110.701 9.13909 110.701 9.13909C110.55 9.19545 110.218 9.33091 109.855 9.57454C108.764 10.3064 108.046 11.5527 108.046 12.9645Z" fill="var(--fill-0, white)"/>
<path id="Vector_6" d="M147.625 14.69H141.921C141.705 14.7045 141.423 14.7609 141.189 14.9563C140.755 15.3182 140.923 15.7918 140.437 16.2036C140.386 16.2463 140.066 16.5063 139.669 16.5063C139.483 16.5063 139.306 16.4618 139.151 16.38C139.113 16.36 139.073 16.3382 139.038 16.3136C138.678 16.1 138.368 15.9354 138.14 15.82C136.985 15.2345 136.012 14.9245 135.485 14.7754C135.382 14.7463 135.28 14.7163 135.175 14.6909C133.928 14.3591 132.618 14.1827 131.266 14.1827C129.914 14.1827 128.603 14.3591 127.357 14.6909C126.496 14.9182 125.665 15.2191 124.873 15.5872C123.931 16.0227 123.043 16.5518 122.218 17.1627C120.963 18.0936 120.086 19.0409 119.565 19.6663C117.957 21.5982 117.21 23.4727 116.911 24.3227C116.143 26.5018 116.072 28.3345 116.037 29.4145C116.019 29.9954 116.032 30.4418 116.037 30.5918C116.114 32.8563 116.623 34.6736 116.911 35.6836C117.251 36.6436 118.007 38.4691 119.565 40.34C120.483 41.4409 121.429 42.2582 122.218 42.8436C123.043 43.4545 123.931 43.9845 124.873 44.4191C125.684 44.7954 126.536 45.1045 127.421 45.3327C128.649 45.6536 129.938 45.8236 131.267 45.8236C132.596 45.8236 133.884 45.6536 135.113 45.3327C135.239 45.3 135.363 45.2663 135.487 45.2309C136.009 45.0809 136.653 44.8663 137.368 44.5527C137.601 44.4509 137.833 44.3491 138.142 44.1872C138.997 43.74 139.157 43.5163 139.6 43.4991C139.648 43.4972 140.111 43.4854 140.43 43.7909C140.573 43.9272 140.664 44.1054 140.692 44.1582C140.809 44.3882 140.794 44.5063 140.928 44.7372C140.958 44.7882 141.031 44.9127 141.143 45.0218C141.396 45.27 141.734 45.3218 141.921 45.3336H147.626C148.25 45.3336 148.754 44.8291 148.754 44.2054V15.82C148.754 15.1963 148.25 14.6918 147.626 14.6918L147.625 14.69ZM140.793 33.7973C140.593 34.26 140.356 34.7018 140.081 35.1182C139.554 35.9209 138.897 36.6318 138.139 37.2191C137.352 37.8318 136.455 38.31 135.484 38.6209C134.65 38.8891 133.757 39.0345 132.833 39.0345H132.831C131.904 39.0345 131.013 38.8891 130.176 38.6191C129.205 38.3072 128.31 37.8291 127.523 37.2163C126.767 36.63 126.112 35.92 125.585 35.1191C125.311 34.7009 125.072 34.2582 124.871 33.7918C124.419 32.7427 124.169 31.5845 124.169 30.37C124.169 30.2572 124.171 30.1463 124.176 30.0354V30.0282C124.174 30.0236 124.174 30.0172 124.174 30.0127H124.176C124.22 28.9282 124.463 27.8954 124.871 26.9491C125.19 26.2082 125.609 25.5218 126.112 24.9054C126.527 24.3927 127.001 23.9282 127.523 23.5245C128.311 22.9118 129.206 22.4336 130.176 22.1218C131.013 21.8518 131.904 21.7063 132.831 21.7063H132.833C133.757 21.7063 134.649 21.8518 135.484 22.12C136.455 22.43 137.352 22.9091 138.139 23.5218C138.663 23.9272 139.139 24.3927 139.556 24.9063C140.058 25.5209 140.474 26.2054 140.793 26.9436C141.202 27.8909 141.447 28.9273 141.49 30.0136H141.492V30.0363C141.496 30.1473 141.498 30.2582 141.498 30.3709C141.498 31.5882 141.246 32.7472 140.793 33.7991V33.7973Z" fill="var(--fill-0, white)"/>
<path id="Vector_7" d="M171.345 15.3764C171.35 15.49 171.345 15.5755 171.345 15.5855V19.79C171.345 20.2118 171.338 20.6337 171.338 21.0555C171.338 21.2137 171.338 21.26 171.321 21.3355C171.221 21.7646 170.79 22.0891 170.372 22.1855C170.294 22.2037 170.242 22.2082 169.943 22.2127C169.048 22.2255 168.873 22.1909 168.411 22.2127C167.875 22.2382 167.483 22.3137 167.355 22.3391C166.373 22.5382 165.473 22.9537 164.701 23.5337C164.185 23.9191 163.73 24.3791 163.347 24.8964C162.531 25.9982 162.048 27.3627 162.048 28.84V44.1964C162.048 44.82 161.542 45.3246 160.92 45.3246H155.215C154.592 45.3246 154.085 44.82 154.085 44.1964V15.8109C154.085 15.1891 154.592 14.6827 155.215 14.6827H160.92C161.542 14.6827 162.048 15.1891 162.048 15.8109V15.8755C162.048 16.4991 162.553 17.0055 163.176 17.0055C163.317 17.0055 163.463 16.9691 163.5 16.9582C163.794 16.8737 163.923 16.7127 164.349 16.3991C164.464 16.3137 164.583 16.2327 164.702 16.1537C165.521 15.6055 166.412 15.1555 167.356 14.8237C167.358 14.8218 167.359 14.8209 167.361 14.8218C167.498 14.7727 167.637 14.7264 167.776 14.6827C168.276 14.5264 168.79 14.4018 169.314 14.3127C169.544 14.2737 169.663 14.2582 169.695 14.2546C170.126 14.2046 170.349 14.1782 170.582 14.2527C170.701 14.2909 170.932 14.39 171.153 14.6827C171.235 14.8046 171.274 14.9155 171.288 14.9582C171.335 15.1046 171.34 15.2327 171.345 15.3755V15.3764Z" fill="var(--fill-0, white)"/>
</g>
</svg>
